Coordinates
version=1
nRows=14
nColumns=36
inDegrees=yes

Units are S.I. units (second, meters, Newtons, ...)
If the header above contains a line with 'inDegrees', this indicates whether rotational values are in degrees (yes) or radians (no).

endheader
time	pelvis_tilt	pelvis_list	pelvis_rotation	pelvis_tx	pelvis_ty	pelvis_tz	hip_flexion_r	hip_adduction_r	hip_rotation_r	knee_angle_r	knee_angle_r_beta	ankle_angle_r	subtalar_angle_r	mtp_angle_r	hip_flexion_l	hip_adduction_l	hip_rotation_l	knee_angle_l	knee_angle_l_beta	ankle_angle_l	subtalar_angle_l	mtp_angle_l	lumbar_extension	lumbar_bending	lumbar_rotation	arm_flex_r	arm_add_r	arm_rot_r	elbow_flex_r	pro_sup_r	arm_flex_l	arm_add_l	arm_rot_l	elbow_flex_l	pro_sup_l
      0.00000000	     -4.31533491	      0.64730915	    -11.27379583	      0.06871640	      1.19679642	      0.12855354	      2.67376774	      1.74320395	    -11.95980142	      3.84081126	      0.06703480	      4.02694157	     -6.12587922	     -6.42228409	      1.20237177	     -5.43069122	     -9.07221022	      5.30090943	      0.09251832	      8.00995644	      0.22846525	     -6.42228409	     -0.12667307	      3.14948764	     -1.70548813	      4.36962304	     -9.44155858	     26.75713538	     26.62471317	     73.00075505	      0.55311337	     -7.71265692	     20.64332710	     31.03446283	     68.48294849
      0.01666670	     -5.84822815	      1.96713368	    -11.22794477	      0.06915133	      1.19820927	      0.12799223	      4.92489851	      0.92633816	    -13.06018322	      4.56518830	      0.07967757	      7.61669028	     -4.40365901	     -6.47767103	      3.54463252	     -3.95993495	     -9.03248041	      5.32798838	      0.09299094	      8.13747978	      1.18203501	     -6.47767103	      2.60484231	      2.12664362	     -1.61323221	      3.80830659	     -8.76886236	     25.74627944	     25.65803530	     73.56707073	      1.11717861	     -7.43046605	     20.61178925	     29.56049797	     69.34238135
      0.03333330	     -6.18137672	      3.35342824	    -11.28051673	      0.06772189	      1.19804631	      0.12789793	      5.30267808	     -0.27971681	    -14.06248874	      3.96518589	      0.06920555	      7.54698424	     -3.88546812	     -6.83981202	      4.30631591	     -2.60743647	     -9.63183925	      5.26143542	      0.09182937	      8.00788156	      1.25662877	     -6.83981202	      3.39686781	      0.41397954	     -0.40316429	      2.72561813	     -7.78549896	     18.79157497	     26.67206128	     79.36890677	      2.39110300	     -7.83537237	     21.33645494	     28.49594354	     74.50520397
      0.05000000	     -6.08306925	      3.87261653	    -11.10340278	      0.06769180	      1.19860321	      0.12941459	      5.03734127	     -0.74786738	    -14.13770201	      3.32156729	      0.05797229	      7.55114677	     -3.80896714	     -6.86427725	      3.97778837	     -1.95602714	     -9.71680619	      4.61837817	      0.08060591	      7.46599941	      0.92995965	     -6.86427725	      3.61303026	     -0.36346639	     -0.39212106	      2.71269594	     -7.55931584	     18.49465601	     26.85766538	     79.01425645	      2.46802306	     -8.15304656	     21.10193082	     28.68439094	     74.15465471
      0.06666670	     -5.78589373	      4.07162370	    -10.85539872	      0.06669025	      1.19959368	      0.12871326	      4.49331221	     -0.90375854	    -13.80080374	      2.79516939	      0.04878491	      7.88379642	     -3.74438475	     -6.89549514	      3.53565552	     -1.56546011	     -9.47501338	      3.94966372	      0.06893464	      7.10367074	      0.67908620	     -6.89549514	      3.18276918	     -0.67750634	     -0.29020568	      2.93057108	     -7.44399973	     17.92215942	     26.83285279	     78.68762578	      2.90109263	     -8.23809898	     21.00701161	     28.59038618	     73.79620607
      0.08333330	     -5.63547366	      4.19247547	    -10.52146260	      0.06533094	      1.20167412	      0.12874514	      4.21870610	     -1.00409404	    -13.33344256	      2.43865371	      0.04256254	      8.24030151	     -3.70361664	     -6.95816472	      3.37179931	     -1.31283379	     -9.22333261	      3.57709124	      0.06243202	      6.54898840	      0.39958524	     -6.95816472	      2.83970078	     -0.91265782	     -0.23459386	      2.93881216	     -7.45384001	     17.57582174	     27.38249940	     77.55460169	      3.23690910	     -8.32033409	     21.05692353	     28.90002374	     72.76268274
      0.10000000	     -5.55912124	      4.18857124	    -10.16534618	      0.06612239	      1.20126502	      0.12884720	      3.92116241	     -0.97470973	    -13.12631457	      2.08528998	      0.03639518	      8.50742137	     -3.49885284	     -6.99942343	      3.23163553	     -1.25021760	     -9.11577800	      3.44152772	      0.06006599	      6.35679373	      0.59002943	     -6.99942343	      2.66906273	     -1.00565683	     -0.15743103	      3.01272640	     -7.52811659	     17.61468404	     27.53185461	     76.85953903	      3.73568189	     -8.26404060	     21.37207576	     28.80640925	     72.08004086
      0.11666670	     -5.59277124	      4.16187585	     -9.94972373	      0.06544801	      1.20341925	      0.12867415	      3.85250014	     -0.90873278	    -12.43543305	      1.96104312	      0.03422666	      8.39168415	     -4.14419051	     -7.13045567	      3.30365269	     -1.27437025	     -8.97920574	      3.55816486	      0.06210169	      6.31368175	      0.86050975	     -7.13045567	      2.66607369	     -1.06959395	      0.23605677	      3.23563910	     -7.78010457	     18.92467996	     27.17999085	     76.08434364	      4.69673599	     -8.18847708	     23.18852940	     27.93358032	     70.72261562
      0.13333330	     -5.36637793	      4.10357186	     -9.63419617	      0.06367587	      1.20463682	      0.12882123	      3.46707823	     -0.82822354	    -12.33426100	      1.69671873	      0.02961333	      8.21732853	     -4.50344298	     -7.19898086	      3.13357166	     -1.27735766	     -8.65859670	      3.62104629	      0.06319918	      6.17870664	      1.00218623	     -7.19898086	      2.05538487	     -1.16745996	      0.18719489	      3.40606653	     -7.87991503	     19.13367050	     27.70815333	     74.67858166	      5.04155406	     -8.28756997	     23.39428743	     28.46315176	     69.41995195
      0.15000000	     -5.29971640	      4.07074586	     -9.46858804	      0.06345440	      1.20199405	      0.12796283	      3.36566559	     -0.76512546	    -11.88322768	      1.63682127	      0.02856792	      8.05542736	     -5.13718341	     -7.25881668	      3.11269545	     -1.29338920	     -8.47369702	      3.52923949	      0.06159685	      5.89712710	      0.95938961	     -7.25881668	      1.69880145	     -1.21253754	      0.24095257	      3.57006857	     -8.07329670	     19.62923005	     28.08223722	     73.38725230	      5.30576033	     -8.37554010	     23.73624363	     28.82543824	     68.18000330
      0.16666670	     -5.34434103	      4.06053917	     -9.35730280	      0.06818498	      1.20384980	      0.12686995	      3.33166910	     -0.75413937	    -11.79960420	      1.60500967	      0.02801270	      7.96531334	     -5.05711917	     -7.25982768	      3.13028765	     -1.28835346	     -8.37677109	      3.56787819	      0.06227122	      5.82609507	      1.12571479	     -7.25982768	      1.72108202	     -1.21504547	      0.22850659	      3.63367941	     -8.14042850	     19.75264138	     28.00924918	     73.48535057	      5.42908756	     -8.31656815	     23.83637497	     28.76523830	     68.18480907
      0.18333330	     -5.28408730	      4.01041096	     -9.25008782	      0.06439957	      1.20204199	      0.12719970	      3.25232917	     -0.70096724	    -11.58446321	      1.59407452	      0.02782185	      7.72077782	     -5.72698173	     -7.27628358	      3.10097154	     -1.32545208	     -8.46685931	      3.56759026	      0.06226620	      5.83452115	      1.33981193	     -7.27628358	      1.62490182	     -1.21460390	      0.32066899	      4.09555861	     -8.53614411	     21.85531627	     27.68120627	     75.01161932	      5.94449083	     -8.36415562	     25.51411671	     27.91076160	     68.11471502
      0.20000000	     -5.32191785	      3.99778936	     -9.09210012	      0.06517523	      1.20232055	      0.12705493	      3.32591946	     -0.71047836	    -11.52514558	      1.59673210	      0.02786823	      7.80674812	     -5.77357838	     -7.32772826	      3.12966261	     -1.33381148	     -8.31125328	      3.61973749	      0.06317634	      5.63492535	      1.30513207	     -7.32772826	      1.63553399	     -1.24635997	      0.24287684	      4.28766250	     -8.62327704	     22.31388078	     27.59365900	     74.42439897	      5.88915782	     -8.44328701	     26.12380901	     27.96621167	     66.83619565
      0.21666670	     -5.22372966	      3.96345546	     -9.05887995	      0.06458327	      1.20169797	      0.12660491	      3.21996949	     -0.70231491	    -11.32632906	      1.53199493	      0.02673836	      7.83598634	     -5.98808971	     -7.36052330	      2.97517886	     -1.33308176	     -8.31161812	      3.55650764	      0.06207277	      5.41869070	      1.33617868	     -7.36052330	      1.35704642	     -1.24681490	      0.29726332	      4.37402208	     -8.78315763	     22.41044640	     28.10134284	     73.40062264	      5.80459277	     -8.57192072	     26.20935102	     28.48955095	     65.96758466
